<?xml version="1.0" encoding="UTF-8"?>
<svg id="_레이어_2" data-name="레이어 2" xmlns="http://www.w3.org/2000/svg" viewBox="0 0 203.48 31.99">
  <defs>
    <style>
      .cls-1 {
        fill: #fcd600;
      }
    </style>
  </defs>
  <g id="_레이어_1-2" data-name="레이어 1">
    <g>
      <path class="cls-1" d="M17,.67l3.41,9.63c.14.38.49.65.9.67l9.85.44c.91.04,1.3,1.18.6,1.77l-7.8,6.51c-.3.25-.43.65-.33,1.02l2.66,10.03c.24.9-.78,1.61-1.54,1.08l-8.11-5.66c-.34-.24-.8-.24-1.14,0l-8.11,5.66c-.76.53-1.78-.18-1.54-1.08l2.66-10.03c.1-.38-.03-.78-.33-1.02L.36,13.16c-.7-.58-.32-1.73.6-1.77l9.85-.44c.41-.02.76-.28.9-.67L15.12.67c.31-.89,1.57-.89,1.89,0Z"/>
      <path class="cls-1" d="M59.84.67l3.41,9.63c.14.38.49.65.9.67l9.85.44c.91.04,1.3,1.18.6,1.77l-7.8,6.51c-.3.25-.43.65-.33,1.02l2.66,10.03c.24.9-.78,1.61-1.54,1.08l-8.11-5.66c-.34-.24-.8-.24-1.14,0l-8.11,5.66c-.76.53-1.78-.18-1.54-1.08l2.66-10.03c.1-.38-.03-.78-.33-1.02l-7.8-6.51c-.7-.58-.32-1.73.6-1.77l9.85-.44c.41-.02.76-.28.9-.67l3.41-9.63c.31-.89,1.57-.89,1.89,0Z"/>
      <path class="cls-1" d="M102.68.67l3.41,9.63c.14.38.49.65.9.67l9.85.44c.91.04,1.3,1.18.6,1.77l-7.8,6.51c-.3.25-.43.65-.33,1.02l2.66,10.03c.24.9-.78,1.61-1.54,1.08l-8.11-5.66c-.34-.24-.8-.24-1.14,0l-8.11,5.66c-.76.53-1.78-.18-1.54-1.08l2.66-10.03c.1-.38-.03-.78-.33-1.02l-7.8-6.51c-.7-.58-.32-1.73.6-1.77l9.85-.44c.41-.02.76-.28.9-.67l3.41-9.63c.31-.89,1.57-.89,1.89,0Z"/>
      <path class="cls-1" d="M145.52.67l3.41,9.63c.14.38.49.65.9.67l9.85.44c.91.04,1.3,1.18.6,1.77l-7.8,6.51c-.3.25-.43.65-.33,1.02l2.66,10.03c.24.9-.78,1.61-1.54,1.08l-8.11-5.66c-.34-.24-.8-.24-1.14,0l-8.11,5.66c-.76.53-1.78-.18-1.54-1.08l2.66-10.03c.1-.38-.03-.78-.33-1.02l-7.8-6.51c-.7-.58-.32-1.73.6-1.77l9.85-.44c.41-.02.76-.28.9-.67l3.41-9.63c.31-.89,1.57-.89,1.89,0Z"/>
      <path class="cls-1" d="M188.37.67l3.41,9.63c.14.38.49.65.9.67l9.85.44c.91.04,1.3,1.18.6,1.77l-7.8,6.51c-.3.25-.43.65-.33,1.02l2.66,10.03c.24.9-.78,1.61-1.54,1.08l-8.11-5.66c-.34-.24-.8-.24-1.14,0l-8.11,5.66c-.76.53-1.78-.18-1.54-1.08l2.66-10.03c.1-.38-.03-.78-.33-1.02l-7.8-6.51c-.7-.58-.32-1.73.6-1.77l9.85-.44c.41-.02.76-.28.9-.67l3.41-9.63c.31-.89,1.57-.89,1.89,0Z"/>
    </g>
  </g>
</svg>