<?xml version="1.0" encoding="UTF-8"?>
<svg id="_레이어_2" data-name="레이어 2" xmlns="http://www.w3.org/2000/svg" viewBox="0 0 523.18 149.31">
  <defs>
    <style>
      .cls-1 {
        fill: #272b2e;
      }

      .cls-2 {
        fill: #fff;
      }

      .cls-3 {
        fill: #fbd600;
      }

      .cls-4 {
        fill: #d8d7d6;
      }
    </style>
  </defs>
  <g id="Layer_1" data-name="Layer 1">
    <g>
      <path class="cls-1" d="M230.78,34.75l-2.68-25.72c-.44-4.23-3.96-7.41-8.19-7.41-.27,0-.61.02-.88.05l-2.48.26c-2.22.23-4.2,1.29-5.58,3-.07.09-.14.17-.21.26-1.71-.48-3.53-.63-5.39-.44-2.2.23-4.22.92-6.01,2.03-1.49-1.49-3.55-2.41-5.81-2.41-.27,0-.61.02-.88.05l-2.48.26c-2.05.21-3.9,1.14-5.27,2.63-1.87-.55-3.86-.72-5.92-.51-1.99.21-3.86.77-5.55,1.66-.57.3-1.1.65-1.61,1.01-1.48-1.4-3.47-2.25-5.65-2.25-.3,0-.6.02-.88.05l-2.48.26c-1.82.19-3.48.94-4.78,2.14-.95-.39-2-.6-3.09-.6-.16,0-.34,0-.52.02l-2.46.14c-.12,0-.24.02-.35.03-2.19.23-4.18,1.31-5.58,3.04-.02.03-.04.06-.07.09-1.5-1.52-3.57-2.45-5.85-2.45-.27,0-.61.02-.88.04l-2.48.26c-1.38.14-2.63.6-3.71,1.29-.59-.13-1.19-.2-1.8-.2-.27,0-.59.02-.86.04l-7.47.78c-1.64.17-3.17.83-4.47,1.92-.36,0-.73,0-1.1.04l-2.2.23c-2.06.21-3.88,1.14-5.22,2.55-1.51-1.92-3.85-3.14-6.47-3.14-.27,0-.61.02-.88.05l-2.49.26c-1.38.14-2.63.6-3.7,1.29-.59-.13-1.19-.2-1.8-.2-.27,0-.59.02-.86.04l-7.46.78c-1.4.15-2.73.65-3.9,1.48-1.2-.69-2.59-1.08-4.07-1.08-.27,0-.61.02-.88.04l-2.49.26c-2.1.22-3.92,1.17-5.22,2.58-.79-.07-1.61-.06-2.47.02l-8.83.92c-2.13.22-4.07,1.22-5.45,2.8-1.49,1.71-2.21,4.01-1.97,6.31l.19,1.87c.15,1.47.7,2.88,1.58,4.08-.98,1.13-1.64,2.5-1.91,3.96-.45,2.37.14,4.82,1.61,6.74l.91,1.19c.93,1.26,2.17,2.21,3.56,2.8l.08.78c.37,3.53,2.04,5.6,3.37,6.73,1.17.98,3.2,2.15,6.24,2.15.45,0,.91-.03,1.39-.07l14.52-1.51c1.66-.17,3.21-.83,4.47-1.88.98-.81,1.74-1.84,2.24-2.97,1.74-.2,3.49-.42,5.25-.69.67-.1,1.33-.21,1.98-.33,1.43,2.47,4.1,4.1,7.12,4.1.3,0,.6-.02.88-.04l2.48-.26c1.48-.15,2.81-.67,3.93-1.45.08,0,.16,0,.24,0,.31,0,.63-.02.95-.05l2-.21c1.27-.13,2.46-.52,3.56-1.16,1.35-.8,2.45-1.98,3.18-3.39.54.06,1.1.07,1.66.02,2.83-.26,5.74-.61,8.65-1.05.67-.1,1.33-.21,1.99-.33,1.43,2.47,4.1,4.1,7.12,4.1.27,0,.61-.02.88-.05l2.48-.26c2.22-.23,4.2-1.3,5.59-3.01.32-.4.6-.83.84-1.27.4.26.82.51,1.25.73,1.54.8,3.29,1.34,5.2,1.62.94.14,1.93.21,2.93.21.81,0,1.65-.05,2.5-.13,1.85-.19,3.61-.59,5.22-1.18,1.76-.65,3.34-1.52,4.7-2.58,1.28-1,2.32-2.17,3.14-3.48,1.04,1.11,2.28,2.03,3.71,2.75,1.53.77,3.27,1.29,5.17,1.55.9.12,1.84.19,2.81.19.83,0,1.7-.05,2.59-.14,1.81-.19,3.54-.57,5.12-1.14,1.78-.64,3.37-1.5,4.73-2.56,1.62-1.26,2.88-2.78,3.76-4.52.14-.27.26-.55.38-.82,1.79.56,3.7.75,5.66.55,1.12-.12,2.19-.35,3.21-.7,1.01,3.47,4.19,5.94,7.91,5.94.27,0,.61-.02.88-.05l2.48-.26c4.61-.48,7.85-4.47,7.37-9.08Z"/>
      <g>
        <path class="cls-2" d="M60.19,42.68c-.18.02-.33-.07-.46-.26l-.98-1.28c-.11-.14-.15-.29-.12-.45.03-.16.12-.3.28-.41.97-.61,1.89-1.3,2.77-2.09.88-.79,1.66-1.61,2.35-2.47.69-.86,1.28-1.73,1.76-2.61.48-.88.82-1.71,1.02-2.5.06-.19.07-.35.05-.47-.02-.12-.19-.16-.51-.13l-6.85.71c-.13.01-.23-.02-.31-.1-.07-.08-.12-.17-.13-.28l-.19-1.87c-.03-.26.1-.41.38-.43l8.83-.92c.82-.09,1.44,0,1.86.27.42.27.62.7.59,1.3-.02.21-.04.42-.08.63-.03.21-.07.4-.11.57-.13.73-.35,1.48-.67,2.25-.31.77-.69,1.55-1.14,2.33.37.34.79.67,1.26,1,.47.33.94.64,1.44.94.49.3.97.57,1.45.82.48.25.91.46,1.31.62.39.15.49.42.31.81l-.77,1.52c-.17.32-.46.4-.85.26-.35-.13-.77-.33-1.26-.59-.49-.26-1-.55-1.53-.88-.53-.33-1.06-.68-1.57-1.06-.52-.38-.98-.74-1.4-1.09-.84,1.1-1.8,2.14-2.86,3.11-1.06.97-2.21,1.84-3.45,2.61-.11.07-.25.11-.42.13ZM82,50.04c-.08.06-.16.1-.26.11l-14.52,1.51c-.84.09-1.41,0-1.73-.27-.32-.27-.52-.76-.59-1.49l-.63-6.07c0-.09.02-.19.1-.28.07-.09.16-.14.25-.15l2.4-.25c.11-.01.21.02.31.09.09.08.14.16.15.25l.51,4.93c.02.19.07.3.15.35.08.05.22.06.43.04l12.9-1.34c.09,0,.18.02.28.08.09.07.14.14.15.24l.21,1.98c.01.11-.02.2-.1.26ZM71.57,34.4l-.2-1.92c0-.09.02-.18.1-.25.08-.07.16-.12.25-.12l4.43-.46-.7-6.72c-.02-.24.08-.37.32-.4l2.48-.26c.24-.03.37.08.4.32l1.88,18.09c.03.24-.08.37-.32.4l-2.48.26c-.24.03-.37-.08-.4-.32l-.91-8.75-4.43.46c-.09.01-.19-.02-.28-.08-.09-.07-.14-.14-.15-.24Z"/>
        <path class="cls-2" d="M99.06,28.56c-.08.09-.17.14-.28.16l-14.71,1.53c-.09,0-.2-.03-.31-.11-.11-.08-.17-.18-.19-.29l-.16-1.56c0-.09.04-.19.14-.3.1-.1.2-.16.29-.17l14.68-1.53c.11-.01.21.02.31.09.09.08.14.17.16.28l.17,1.59c.01.11-.02.21-.09.31ZM91.72,30.41c.85-.09,1.67-.06,2.43.1.77.16,1.45.41,2.05.76.6.35,1.09.8,1.47,1.36.38.55.6,1.17.67,1.86.06.59,0,1.16-.18,1.69-.18.54-.46,1.02-.83,1.45-.38.43-.84.82-1.39,1.14-.55.33-1.15.59-1.81.77l.24,2.34c2.16-.34,4.28-.79,6.37-1.34.09-.03.19-.03.31-.02.11.02.19.1.22.24l.35,1.71c.03.15.02.26-.05.34-.07.08-.14.14-.24.17-2.56.7-5.22,1.26-7.99,1.68-2.77.42-5.5.75-8.18.99-.11.01-.21-.02-.29-.1-.08-.08-.13-.17-.14-.28l-.19-1.81c-.03-.28.09-.43.35-.46,2.12-.17,4.26-.39,6.41-.67l-.26-2.51c-.66-.06-1.28-.2-1.86-.41-.58-.21-1.08-.49-1.52-.84-.44-.35-.8-.76-1.07-1.23-.27-.47-.44-1-.5-1.59-.07-.69.02-1.34.29-1.96.26-.62.65-1.16,1.17-1.63.52-.47,1.13-.85,1.85-1.16.72-.31,1.5-.51,2.33-.59ZM95.15,25.35c-.07.1-.18.16-.31.17l-7.47.78c-.08,0-.17-.02-.28-.08-.11-.06-.17-.17-.19-.32l-.17-1.62c-.01-.13.03-.24.12-.32.09-.08.18-.13.25-.14l7.47-.78c.11-.01.22.02.32.11.1.08.16.18.17.29l.16,1.56c.01.13-.02.25-.09.35ZM91.97,32.89c-.89.09-1.61.38-2.16.86-.55.48-.79,1.04-.72,1.7.07.65.42,1.16,1.05,1.53.63.37,1.4.5,2.31.41.91-.09,1.64-.39,2.18-.87.54-.49.78-1.06.71-1.71-.07-.65-.42-1.15-1.04-1.51-.63-.36-1.4-.49-2.31-.39ZM109.11,34.71c-.08.08-.16.13-.25.14l-3.65.38,1.3,12.46c.02.24-.08.38-.32.4l-2.48.26c-.24.03-.37-.08-.4-.32l-2.68-25.72c-.02-.24.08-.38.32-.4l2.48-.26c.24-.03.37.08.4.32l1.1,10.59,3.65-.38c.09,0,.18.02.28.08.09.07.14.14.15.24l.2,1.95c0,.09-.02.18-.1.26Z"/>
        <path class="cls-2" d="M113.66,46.28c-.1.06-.22.09-.37.11l-2.01.21c-.21.02-.36,0-.47-.08-.11-.07-.14-.22-.09-.46l4.85-23.52c.05-.21.19-.33.41-.35l2.2-.23c.43-.04.6.12.53.51l-4.82,23.46c-.06.18-.13.29-.23.35Z"/>
        <path class="cls-2" d="M135.7,24.75c-.08.09-.17.14-.28.16l-14.71,1.53c-.09,0-.2-.03-.31-.11-.11-.08-.17-.18-.18-.29l-.16-1.56c-.01-.09.04-.19.14-.29.1-.11.2-.16.29-.17l14.68-1.53c.11-.01.21.02.31.09.09.08.14.17.16.28l.17,1.59c.01.11-.02.21-.1.31ZM128.36,26.6c.85-.09,1.67-.05,2.43.1.77.16,1.45.41,2.05.76.6.35,1.09.8,1.46,1.35.38.55.6,1.17.67,1.86.06.59,0,1.16-.18,1.69-.18.54-.46,1.02-.83,1.45-.38.43-.84.81-1.39,1.14-.55.33-1.15.58-1.81.77l.24,2.34c2.16-.34,4.28-.78,6.37-1.34.09-.03.19-.03.31-.02.11.02.19.1.22.25l.35,1.71c.03.15.02.26-.05.34-.07.08-.15.14-.24.16-2.56.7-5.22,1.26-7.99,1.68-2.77.42-5.5.75-8.18.99-.11.01-.21-.02-.29-.1-.08-.08-.13-.17-.14-.28l-.19-1.81c-.03-.28.09-.43.35-.46,2.12-.17,4.26-.39,6.41-.67l-.26-2.51c-.66-.06-1.28-.2-1.86-.41-.58-.21-1.08-.49-1.52-.84-.44-.35-.8-.76-1.07-1.23-.27-.47-.44-1-.5-1.6-.07-.69.03-1.34.29-1.96.26-.62.65-1.16,1.17-1.63.52-.47,1.13-.86,1.85-1.16.72-.31,1.5-.51,2.33-.6ZM131.79,21.53c-.07.1-.18.16-.31.17l-7.47.78c-.07,0-.17-.02-.28-.08-.11-.06-.17-.17-.19-.32l-.17-1.62c-.01-.13.03-.24.12-.32.09-.08.18-.13.25-.14l7.47-.78c.11-.01.22.02.32.11.1.08.16.18.17.29l.16,1.56c.01.13-.02.25-.09.35ZM128.62,29.08c-.89.09-1.61.38-2.16.86-.55.48-.79,1.05-.72,1.7.07.65.42,1.16,1.05,1.52s1.4.5,2.31.41c.91-.1,1.64-.39,2.18-.88.54-.49.78-1.06.71-1.71-.07-.65-.42-1.15-1.04-1.51-.63-.36-1.4-.49-2.31-.39ZM145.75,30.9c-.08.08-.16.13-.25.14l-3.65.38,1.3,12.46c.03.24-.08.37-.32.4l-2.48.26c-.24.03-.37-.08-.4-.33l-2.68-25.72c-.02-.24.08-.37.32-.4l2.48-.26c.24-.03.37.08.4.32l1.1,10.59,3.65-.38c.09,0,.19.02.28.08.09.07.14.14.15.24l.2,1.95c0,.09-.02.18-.1.26Z"/>
        <path class="cls-2" d="M149.26,32.02c-.23.17-.41.25-.54.23-.13-.02-.26-.09-.39-.21l-1.28-1.19c-.21-.18-.29-.34-.26-.48.03-.13.13-.27.28-.4.97-.81,1.8-1.64,2.5-2.47.7-.83,1.26-1.73,1.68-2.7.42-.96.69-2.03.84-3.2.14-1.17.13-2.5-.02-3.98-.01-.13.02-.25.1-.35.08-.1.17-.16.26-.17l2.46-.14c.24-.03.38.1.41.38.17,1.63.18,3.09.03,4.36.37.67.83,1.3,1.37,1.89.54.58,1.11,1.11,1.71,1.58.6.47,1.21.88,1.82,1.22.61.34,1.17.6,1.7.77.33.1.41.32.24.65l-.82,1.63c-.13.33-.38.43-.73.3-1.19-.38-2.31-.96-3.38-1.72-1.07-.76-2-1.64-2.79-2.62-.51,1.25-1.19,2.42-2.06,3.48-.87,1.07-1.91,2.12-3.14,3.14ZM168.96,36.2c.08.78-.05,1.52-.4,2.22-.35.7-.88,1.33-1.58,1.88-.7.55-1.55,1.01-2.55,1.38-.99.37-2.1.61-3.3.74-1.26.13-2.42.12-3.47-.03-1.05-.15-1.96-.43-2.73-.83-.77-.4-1.39-.9-1.85-1.51-.46-.61-.73-1.31-.81-2.11-.08-.78.04-1.52.36-2.21.32-.69.82-1.31,1.5-1.86.68-.55,1.51-1.01,2.5-1.37,1-.37,2.12-.62,3.39-.75,1.21-.13,2.34-.11,3.38.04,1.05.15,1.97.42,2.77.81.8.39,1.44.88,1.93,1.49.49.61.77,1.31.85,2.11ZM165.68,36.62c-.05-.46-.23-.86-.54-1.18-.32-.32-.72-.58-1.21-.78-.49-.19-1.05-.32-1.67-.39-.63-.07-1.28-.06-1.97,0-1.49.15-2.66.53-3.53,1.11-.87.59-1.25,1.35-1.16,2.28.05.45.21.82.5,1.13.29.31.66.56,1.12.74.46.19,1,.31,1.63.37.63.06,1.3.05,2.03-.03.69-.07,1.33-.2,1.93-.38.6-.19,1.12-.42,1.56-.7.44-.28.78-.6,1.03-.97.24-.36.34-.77.3-1.21ZM171.51,24.07c-.08.08-.16.13-.25.14l-3.79.39.58,5.57c0,.09-.02.19-.08.28-.07.09-.14.14-.24.15l-2.48.26c-.09,0-.18-.02-.26-.1-.08-.08-.13-.17-.14-.28l-1.53-14.71c-.02-.24.08-.37.32-.4l2.48-.26c.24-.03.37.08.4.32l.68,6.52,3.79-.39c.09,0,.18.01.27.07.09.06.14.13.15.22l.2,1.95c0,.09-.02.18-.1.26Z"/>
        <path class="cls-2" d="M195.1,27.81l-2.48.26c-.24.03-.38-.09-.4-.35l-.35-3.32-5.88.61c-.53.67-1.21,1.22-2.03,1.65-.82.42-1.76.69-2.82.8-.98.1-1.91.04-2.77-.19-.86-.23-1.61-.6-2.26-1.1-.64-.5-1.17-1.13-1.58-1.88-.41-.75-.66-1.58-.75-2.51-.09-.89-.02-1.75.23-2.57.24-.82.63-1.55,1.15-2.19.52-.64,1.18-1.17,1.98-1.59.79-.42,1.68-.68,2.66-.79,1.21-.12,2.31,0,3.31.38,1,.38,1.83.92,2.51,1.64l5.38-.56-.33-3.18c-.02-.24.08-.37.33-.4l2.48-.26c.24-.02.37.08.4.33l1.54,14.8c.03.26-.08.4-.32.43ZM184.17,20.76c-.12-1.11-.54-1.97-1.28-2.56-.74-.59-1.66-.83-2.78-.71-1.08.11-1.92.53-2.52,1.26-.6.73-.84,1.65-.73,2.77.12,1.13.55,2,1.28,2.58.74.59,1.64.83,2.72.72,1.12-.12,1.97-.54,2.57-1.27.6-.73.84-1.66.72-2.79ZM196.24,33.38c.08.78-.05,1.52-.4,2.21-.35.69-.87,1.31-1.57,1.85-.69.54-1.54.99-2.54,1.35-1,.36-2.09.6-3.28.72-1.28.13-2.45.13-3.49-.02-1.05-.14-1.95-.41-2.72-.79-.76-.38-1.37-.88-1.82-1.49-.45-.61-.71-1.31-.8-2.11-.08-.78.04-1.51.35-2.19.31-.68.8-1.29,1.47-1.83.67-.54,1.5-.99,2.49-1.34,1-.36,2.13-.6,3.42-.74,1.19-.12,2.31-.11,3.35.03,1.05.14,1.97.41,2.76.78.79.38,1.43.87,1.91,1.46.48.6.77,1.29.85,2.09ZM192.96,33.81c-.05-.46-.23-.85-.53-1.17-.31-.31-.7-.56-1.19-.75-.49-.18-1.05-.3-1.67-.36-.63-.06-1.27-.05-1.94.02-1.5.16-2.69.51-3.55,1.07-.86.56-1.24,1.3-1.15,2.23.05.45.21.82.48,1.12.27.3.65.54,1.12.71.47.18,1.02.29,1.64.34.62.05,1.3.03,2.02-.04.67-.07,1.3-.19,1.91-.37.6-.18,1.12-.4,1.56-.67.44-.27.78-.58,1.02-.94.23-.35.33-.75.28-1.2ZM187.31,20.37c.03.33.05.66.03.98-.01.32-.05.63-.11.94l4.37-.46-.33-3.18-4.24.44c.14.45.23.88.27,1.27Z"/>
        <path class="cls-2" d="M208.11,31.02c-1.06.11-2.03-.02-2.93-.39-.89-.37-1.67-.92-2.34-1.67-.67-.75-1.22-1.67-1.66-2.77-.43-1.1-.72-2.33-.86-3.69-.15-1.39-.12-2.67.08-3.84.2-1.17.55-2.18,1.05-3.04.5-.86,1.15-1.55,1.95-2.08.8-.52,1.73-.84,2.79-.95.98-.1,1.9,0,2.73.28.84.29,1.58.74,2.24,1.36.66.62,1.21,1.39,1.66,2.32.45.93.79,1.98,1.01,3.16l4.15-.43-.95-9.11c-.02-.24.08-.38.32-.4l2.48-.26c.24-.03.37.08.4.32l2.68,25.72c.02.24-.08.38-.33.4l-2.48.26c-.24.03-.37-.08-.4-.32l-1.45-13.93-4.15.43c.03,1.22-.08,2.33-.33,3.34-.25,1.01-.63,1.89-1.15,2.64-.51.75-1.15,1.35-1.91,1.8-.76.46-1.63.73-2.62.84ZM210.88,21.41c-.09-.85-.26-1.66-.5-2.41-.25-.75-.56-1.4-.94-1.94-.38-.54-.81-.96-1.31-1.26-.5-.29-1.05-.41-1.64-.35-.58.06-1.07.29-1.49.68-.42.39-.76.89-1.01,1.5-.26.61-.43,1.31-.51,2.1-.09.79-.09,1.61,0,2.46.09.84.25,1.63.5,2.38.25.75.56,1.41.94,1.96.38.55.81.98,1.3,1.29.49.31,1.03.43,1.6.37.59-.06,1.11-.29,1.53-.7.43-.4.77-.91,1.02-1.53.25-.62.43-1.32.51-2.11.09-.79.09-1.6,0-2.44Z"/>
      </g>
      <g>
        <path class="cls-1" d="M378.28,74.17c-2.69,10.78-2.03,24.17,6.04,40.34,4,8,15.77,15.03,11.44.73-3.38-11.16-1.78-24.77,3.65-37.91-4.42-5.98-8.34-12.44-11.78-19.03-3.29,4.63-7.75,9.44-9.36,15.87Z"/>
        <path class="cls-1" d="M404.48,132.88c.95-.92.26-3.16-1.53-4.99-1.79-1.83-4.01-2.58-4.95-1.66-.95.92-.26,3.15,1.53,4.99,1.79,1.84,4,2.58,4.94,1.67Z"/>
      </g>
      <path class="cls-1" d="M386.43,93.81s7.01,50.19,77.96,51.55c7.4.14,15.93-3,4.28-7.46-23.05-8.83-58.81-27.16-67.34-58.08-12.84-46.54-14.9,13.99-14.9,13.99Z"/>
      <path class="cls-1" d="M404.66,98.73c.61.58,41.32,62.29,96,22.09,4.85-3.57,8.62-11.3-.8-9.52-25.51,4.81-74.33,8.5-85.56-30.35l-9.63,17.77Z"/>
      <g>
        <path class="cls-1" d="M454.85,117.16h0c-27.17-3.42-45.07-23.57-43.53-48.99.5-8.16,2.89-16.13,7-23.35-1.36-.76-2.68-1.61-3.97-2.58-.51-.37-.96-.81-1.33-1.31-4.63-5.9-5.37-13.07-1.96-19.57,2.36-4.49,7.26-9.18,12.44-8.86,2.62.16,5,1.67,6.21,3.97.53.79,2.99,3.56,7.84,8.4,2.79-1.71,5.72-3.13,8.74-4.25.36-.19.74-.34,1.11-.46,4.67-1.45,9.7-4.53,10.35-6.33-.01-.02-.08-.23-.32-.59-1.74-2.59-1.39-6.07.87-8.26,1.42-1.39,3.37-2.04,5.33-1.79,1.05.13,2.07.52,2.93,1.13.38.27,1.16.84,2.12,1.65.2-.08.4-.14.6-.19,2.86-.77,5.97.57,7.38,3.11.39.7,3.25,6.08,2.46,12.12,4.45,1.81,8.71,4.33,12.59,7.46,5.64-4.39,8.53-6.93,9.17-7.67,1.49-2.16,3.97-3.36,6.65-3.2.16,0,.34.03.51.05,4.96.62,9.07,5.75,10.76,10.24,2.6,6.87,1,13.89-4.38,19.28-.4.41-.88.78-1.42,1.07-1.61.92-3.25,1.7-4.9,2.34,3.11,7.58,4.49,15.67,4,23.71-.79,13-6.65,24.52-16.49,32.45-9.71,7.82-22.75,11.65-36.72,10.8-1.36-.08-2.72-.2-4.06-.37Z"/>
        <path class="cls-1" d="M463.21,120.77c-1.48,0-2.99-.03-4.49-.12-1.43-.09-2.86-.22-4.26-.39-28.89-3.62-47.91-25.12-46.26-52.28.46-7.56,2.51-15.12,5.97-22.04-.57-.38-1.14-.79-1.69-1.2-.74-.53-1.41-1.2-1.97-1.95-5.31-6.78-6.16-15.36-2.22-22.88,2.85-5.43,8.85-10.92,15.41-10.53,3.64.22,6.93,2.3,8.67,5.43.4.52,2,2.38,5.7,6.14,2.25-1.24,4.58-2.31,6.96-3.19.47-.24.96-.43,1.47-.59,3.17-.99,6.04-2.63,7.5-3.75-1.57-3.6-.78-7.87,2.13-10.69,2.09-2.03,4.95-3.02,7.9-2.65,1.56.2,3.05.77,4.35,1.67.24.17.6.44,1.06.79,3.97-.65,8.07,1.38,9.98,4.81.56,1.01,3.03,5.8,2.99,11.65,3.25,1.48,6.36,3.33,9.31,5.5,4.36-3.45,6.28-5.19,6.75-5.68,2.13-2.96,5.51-4.58,9.28-4.35.24.02.47.04.7.07,6.29.79,11.21,6.72,13.31,12.24,3.05,8.07,1.19,16.3-5.1,22.59-.62.62-1.33,1.16-2.13,1.6-.79.45-1.6.88-2.43,1.28,2.51,7.17,3.6,14.8,3.14,22.22-.84,13.89-7.11,26.21-17.65,34.7-9.17,7.38-21.38,11.51-34.38,11.61ZM422.97,15.61c-3.53.03-7.27,3.65-9.14,7.2-2.81,5.36-2.21,11.26,1.66,16.18.23.31.45.53.71.71,1.2.9,2.42,1.69,3.65,2.38.73.41,1.27,1.09,1.49,1.89.23.81.12,1.67-.29,2.4-3.85,6.78-6.14,14.39-6.6,21.99-1.43,23.71,15.35,42.51,40.8,45.7,1.26.16,2.56.28,3.86.36,13.08.8,25.55-2.86,34.57-10.12,9.15-7.37,14.6-18.1,15.34-30.2.45-7.49-.86-15.22-3.78-22.34-.32-.78-.31-1.65.02-2.43.33-.77.97-1.38,1.75-1.68,1.5-.58,3-1.29,4.47-2.14.31-.16.55-.35.75-.55,4.56-4.56,5.86-10.23,3.68-15.97-1.4-3.67-4.75-7.81-8.23-8.25l-.32-.03c-.1,0-.21,0-.32,0-1.45.01-2.75.69-3.55,1.86-.06.09-.14.18-.21.27-1.03,1.18-4.62,4.2-9.62,8.09-1.14.88-2.75.87-3.88-.04-3.66-2.95-7.63-5.3-11.81-6.99-1.32-.54-2.11-1.89-1.92-3.3.66-5.06-1.81-9.69-2.09-10.21-.7-1.27-2.4-1.99-3.83-1.61-.08.02-.18.06-.28.09-1.06.42-2.27.22-3.14-.51-.89-.74-1.6-1.26-1.95-1.51-.42-.29-.95-.49-1.5-.56-1.01-.13-2.03.21-2.77.92-1.16,1.13-1.36,2.93-.46,4.28.26.39.46.75.61,1.11.31.72.33,1.54.06,2.29-1.31,3.62-8.28,6.99-12.36,8.25-.2.06-.39.14-.58.24-.13.06-.25.12-.38.17-2.82,1.05-5.58,2.38-8.2,3.98-1.24.75-2.81.56-3.84-.45-4.31-4.3-7.39-7.61-8.23-8.86-.06-.09-.12-.19-.17-.29-.7-1.32-2.09-2.2-3.63-2.3-.11,0-.23-.01-.35,0Z"/>
      </g>
      <g>
        <path class="cls-2" d="M438.86,35.21s-13.42-12.75-14.9-15.7c-1.48-2.96-13.91,7.11-5.77,17.51,5.95,4.46,11.71,5.39,15.3,5.2,6.11-.32,5.36-7.01,5.36-7.01Z"/>
        <path class="cls-4" d="M419.9,20.5c-3.49,2.92-7.08,9.65-1.7,16.51,5.95,4.46,11.71,5.39,15.3,5.2,1.78-.09,2.98-.74,3.78-1.59-4.54-1.42-8.92-3.49-12.96-6.41-4.59-2.65-6.45-8.89-4.42-13.71Z"/>
        <path class="cls-1" d="M431.41,43.7h0c-3.37-.21-8.54-1.32-14.11-5.5-.11-.07-.2-.16-.28-.27-4.7-5.99-2.98-11.51-1.54-14.26,1.87-3.56,5.33-6.33,7.72-6.19.94.05,1.71.54,2.11,1.34.99,1.98,9.48,10.43,14.6,15.29.26.24.41.57.45.92.02.16.4,3.84-1.76,6.38-1.2,1.41-2.88,2.19-5.01,2.29-.69.04-1.42.03-2.17,0ZM418.81,35.77c5.07,3.74,9.71,4.75,12.73,4.93h0c.64.04,1.28.04,1.88.01,1.33-.07,2.3-.49,2.97-1.28,1-1.17,1.13-2.87,1.13-3.73-2.59-2.47-12.99-12.49-15.05-15.86-.93.2-3.29,1.8-4.83,4.71-1.37,2.63-2.28,6.69,1.16,11.21Z"/>
      </g>
      <g>
        <path class="cls-1" d="M489.55,38.28s14.86-11.03,16.69-13.79c1.83-2.75,12.96,8.74,3.62,18.08-6.45,3.71-12.28,3.95-15.82,3.32-6.03-1.05-4.48-7.6-4.48-7.6Z"/>
        <path class="cls-1" d="M495.92,47.61c-.74-.05-1.47-.13-2.16-.25-2.1-.36-3.68-1.34-4.7-2.88-1.84-2.79-1.02-6.39-.98-6.54.08-.34.29-.65.56-.86,5.66-4.21,15.11-11.56,16.34-13.41.49-.74,1.32-1.14,2.26-1.09,2.38.14,5.48,3.32,6.91,7.08,1.1,2.91,2.14,8.57-3.24,13.96-.1.1-.2.18-.32.24-6.03,3.47-11.31,3.96-14.67,3.75ZM490.93,39.12c-.1.82-.17,2.48.65,3.72.55.83,1.44,1.35,2.71,1.57.58.1,1.19.17,1.81.21,2.93.18,7.51-.25,12.82-3.25,3.84-3.94,3.45-7.96,2.43-10.64-1.14-2.99-3.22-4.79-4.09-5.1-2.37,3-13.55,11.42-16.33,13.5Z"/>
      </g>
      <g>
        <path class="cls-2" d="M505.63,73.88c-1.47,24.26-22.08,38.64-46.34,37.17-24.25-1.47-42.98-18.24-41.5-42.49,1.47-24.26,22.51-45.8,46.77-44.33,24.26,1.47,42.55,25.39,41.07,49.65Z"/>
        <path class="cls-4" d="M432.93,90.49c-12.49-19.38-8.73-41.62,2.29-56.06-9.9,8.32-16.62,20.82-17.43,34.14-1.47,24.26,17.25,41.02,41.5,42.49,7.6.46,14.82-.63,21.23-3.09-23.75,1.38-38.3-3.56-47.59-17.47Z"/>
        <path class="cls-1" d="M459.21,112.55c-26.32-1.59-44.37-20.13-42.92-44.08,1.57-25.83,24.16-47.2,48.36-45.73,24.19,1.47,44.04,25.41,42.48,51.24-1.45,23.94-21.61,40.17-47.92,38.57ZM464.47,25.72c-23.16-1.4-44.77,18.63-46.24,42.86-1.34,22.21,15.96,39.44,41.16,40.96,25.2,1.53,44.46-13.49,45.8-35.7,1.47-24.23-17.56-46.72-40.72-48.13Z"/>
      </g>
      <path class="cls-1" d="M458.91,70.89c-.51-2.43-2.59-4.79-6.18-7-7.67-4.74-20.59-10.78-20.72-10.84-.45-.2-.97-.06-1.25.34-.11.16-11.07,16.67.9,29.87,2.94,3.25,6.16,5,9.57,5.21h0c8.08.49,15.18-7.94,17.26-14.27.23-.42.77-1.6.41-3.31Z"/>
      <path class="cls-2" d="M438.34,63.02c1.82.98,4.22,2.29,6.77,3.8,5.44,3.21,6.4,4.61,6.4,4.61,0,0-3.92,12.94-11.69,6.75-4.31-3.43-5.33-8.32-5.39-11.96-.05-2.87,1.84-4.31,3.92-3.2Z"/>
      <g>
        <path class="cls-2" d="M448.99,26.46s20.8-6.43,13.83-16.84c0,0,17.72,12.57,2.23,18.15"/>
        <path class="cls-1" d="M463.69,8.4c-.59-.42-1.4-.35-1.91.15-.52.5-.61,1.31-.2,1.91,1.17,1.75,1.46,3.39.88,5.02-1.71,4.83-10.31,8.43-13.6,9.45-.79.24-1.55,1.19-1.3,1.98.25.79,3.76.33,4.55.08,13.73-4.27,13.12-13.4,13.15-14.19,1.81.64,3.09,2.47,3.85,4.39.56-.6,1.07-1.26,1.51-2.01-2.51-3.58-6.28-6.33-6.92-6.79Z"/>
      </g>
      <path class="cls-1" d="M455.1,84.73c.09-1.49,1.21-2.49,5.58-2.23,4.26.26,5.3,1.42,5.21,2.88-.09,1.48-4.11,3.53-5.63,3.44-1.51-.09-5.25-2.59-5.16-4.09Z"/>
      <path class="cls-1" d="M448.65,71.77c-.03,1.4-.69,2.51-1.49,2.5-.8-.02-1.42-1.16-1.4-2.56.03-1.39.69-2.51,1.49-2.49.79.02,1.42,1.16,1.39,2.55Z"/>
      <path class="cls-1" d="M493.47,56.95c-.23-.45-.75-.65-1.22-.49-.15.05-14.31,5.04-22.38,8.68-7.08,3.19-6.09,7.65-5.82,8.5,1.06,5.47,5.28,15.84,13.85,16.36,3.15.19,6.52-1.02,10.02-3.61,14.81-10.94,5.64-29.26,5.54-29.44Z"/>
      <g>
        <path class="cls-2" d="M465.89,21.06s5.27-.98,5.1-9.04c0,0,6.7,12.09-5.94,15.74"/>
        <path class="cls-1" d="M464.11,28.21c-.13-.81.19-1.53,1.02-1.61,3.32-.29,6.06-2.1,6.93-4.26.71-1.76.61-4.46-.17-6.06-1.39,2.78-6.41,5.77-7.1,5.89-.39.08-.77-.18-.83-.57-.07-.39.18-.76.56-.84.1-.02,5.12-2.17,4.98-8.72-.01-.69.45-1.3,1.11-1.48.67-.18,1.36.12,1.7.72.14.25,3.4,6.24,1.2,11.56-1.24,3.04-3.39,4.57-7.48,5.75-.17.05-1.76.52-1.92-.4Z"/>
      </g>
      <path class="cls-2" d="M485.22,65.75c-1.98.76-4.67,1.83-7.57,3.1-5.79,2.53-6.91,3.8-6.91,3.8,0,0,2.33,13.31,10.79,8.12,5.04-3.1,6.52-8.33,6.9-12.01.25-2.45-1.24-3.77-3.21-3.01Z"/>
      <path class="cls-1" d="M473.6,73.34c-.13,1.32.37,2.46,1.12,2.54.76.08,1.48-.93,1.62-2.26.14-1.33-.37-2.47-1.13-2.54-.75-.08-1.47.93-1.62,2.26Z"/>
      <path class="cls-1" d="M449.93,91.49s-5.27,10.82,9.55,11.71c14.83.9,11.36-10.45,11.36-10.45,0,0-4.94,3.21-10.54-.18-6.72,2.81-10.37-1.09-10.37-1.09Z"/>
      <path class="cls-2" d="M451.33,92.72s-4.67,7.58,8.2,8.36c12.86.78,9.53-7.51,9.53-7.51,0,0-3.89,2.01-8.75-.99-5.83,2.5-8.98.15-8.98.15Z"/>
      <path class="cls-1" d="M453.1,93.62s.5,4.28-.81,5.47l.96.89s.67-6.16,1.31-6.27l-1.47-.09Z"/>
      <path class="cls-1" d="M467.42,94.49s-1.02,4.18.14,5.53l-1.06.76s.08-6.2-.55-6.38l1.47.09Z"/>
      <path class="cls-1" d="M459.56,92.53s.4.77.34,1.74c-.06.98-.03,6.85-.87,7.19l.66.33.86-.34s-.88-6.22.72-8.36l-.79-.97-.91.41Z"/>
      <path class="cls-1" d="M450.48,90.72c1.74,1.6,4.86,2.93,9.93.49,0,0,4.66,4.6,10.2.68.79-.56,1.66-.21.35,1.14-2.19,2.27-5.99,4.44-10.63-.18,0,0-6.89,4.67-10.46-1.09-.48-.78-.69-2.23.61-1.04Z"/>
      <path class="cls-1" d="M36.19,60.66c.05,3.92,3.25,7.05,7.17,7,3.92-.05,7.05-3.26,7-7.17-.05-3.92-3.26-7.05-7.17-7-3.92.05-7.05,3.26-7,7.17Z"/>
      <path class="cls-1" d="M15.53,61.2c.05,4.4,3.67,7.94,8.07,7.88,4.41-.06,7.94-3.67,7.88-8.08-.05-4.41-3.67-7.94-8.08-7.88-4.41.05-7.93,3.67-7.88,8.08Z"/>
      <path class="cls-1" d="M0,76.94c.06,4.83,4.02,8.69,8.85,8.64,4.83-.06,8.7-4.02,8.64-8.85-.06-4.83-4.02-8.69-8.86-8.64C3.81,68.14-.06,72.11,0,76.94Z"/>
      <path class="cls-1" d="M1.35,96.81c.05,4.11,3.42,7.39,7.52,7.34,4.11-.05,7.39-3.41,7.34-7.52-.05-4.1-3.42-7.39-7.52-7.34-4.1.06-7.39,3.42-7.34,7.52Z"/>
      <path class="cls-1" d="M427.07,103.88c-10.85-10.3-17.81-28.04-6.62-48.86-.94-9.11-10.27-17.88-23.16-17.11-5.66.34-7.14,8.98-7.58,9.66-.86,1.34-1.3.89-2.91.23-.91-.37-1.87-.67-2.89-.89-.29-.06-.59-.12-.88-.16-3.43-.49-6.95-.71-10.46-.69-6.83.05-11.81.62-17.58,2.55-.95.32-1.27-8.11-14.78-7.66-13.56.45-10.45,14.73-12.05,15.71,0,0-2.84,1.5-2.92,1.54-2.97-5.76-9.51-9.2-17.67-9.14-.24,0-.46,0-.69.01-3.11.05-6.86.51-11.47,1.41-.12.02-.25.05-.37.08-4,.91-7.11,1.66-9.28,2.37-.16.05-.31.11-.47.17-10.88,4.03-12.97,11.35-13.28,15.22-1.1-.47-2.23-.95-3.43-1.41,0-1.37-.15-2.73-.48-4.05-1.11-4.53-4.05-8.37-8.31-10.82-2.44-1.42-5.28-2.16-8.23-2.14-5.25.04-10.19,2.5-13.24,6.58-1.98,2.62-4.04,5.6-6.06,8.83-4.53,7.25-8.14,10.25-7.21,5.24,1.35-7.2-2.62-16.13-14.53-18.88-.07-.01-.14-.03-.2-.04-2.09-.45-4.53-.64-7.7-.62-10.32.08-29.59,2.78-36.6,5.72-2.53,1.08-4.67,2.59-6.37,4.4-2.53-1.31-5.57-2.13-9.07-2.19-.2,0-.39,0-.59,0-10.4.3-27.07,1.91-40.13,5.44-2.88-2.51-6.5-3.86-10.42-3.83-.24,0-.66.01-.91.03-4.93.32-9.16,2.69-12.11,6.51-3.62-2.8-8.36-4.08-13.04-3.43-.35.05-.69.11-1.04.19-3.82.85-8.37,3.07-11.2,8.65-2.81-1.15-5.91-1.68-9.5-1.5-2.23.12-4.61.67-6.9,1.42-2.32-1.48-4.99-2.38-7.76-2.56-.09,0-.16-.01-.25-.01-.32-.01-.64-.02-.95-.02-6.19.05-14.25,3.87-16.61,14.47-.02.08-.03.14-.05.22-1.77,8.69-1.64,25.36.26,33.77,1.71,7.84,8.86,13.68,16.7,13.62,1.12,0,2.25-.14,3.35-.38.19-.04.38-.09.56-.14,1.05-.28,2.05-.66,3.01-1.13,2.65,1.03,5.42,1.54,7.96,1.53,1.27-.01,2.53-.15,3.87-.45,4.18-.97,8.18-2.36,12.6-4.4,3.49,3.47,8.27,5.64,13.93,4.72.92-.15,1.82-.37,2.69-.67,1.54,10.23,7.72,17.34,15.91,18.21.49.05.98.07,1.48.07.19,0,.39,0,.58-.01,4.93-.26,9.1-2.63,11.92-6.33,2.49,1.02,5.27,1.57,8.19,1.54,1.67-.01,3.36-.21,5.04-.58,7.44-1.6,28.45-9.44,40.35-14.48.16,1.17.41,2.32.81,3.42.19.53.41,1.06.67,1.56,2.99,5.88,9.34,9.5,16.54,9.45,2.43-.02,4.79-.46,6.96-1.28,8.09-2.99,17.36-5.42,25.58-6.68.63-.1,1.23-.24,1.83-.39,3.22,2.14,7.32,3.35,11.95,3.32.7,0,1.4-.04,2.01-.1,13.07-1.06,47.12-13.9,53.82-16.46.08-.03.15-.06.22-.09.08-.03.16-.08.25-.11,3.47,2.4,7.68,3.74,12.15,3.71,1.05,0,2.1-.19,3.15-.25,7.07-.42,26.93-12.54,29.82-15.18.02.3,14.52,26.24,32.2,14.92,4.24-2.71,2.61-10.06,2.61-10.12-.04-4.63,1.96-2.01,11.59-7.01,2.78-1.44,2.31,1.07,5.27,6.26,2.02-1.71,3.14-9.33,6.59-12.33.35,1.99,1.63,12.86,19.35,27.45,1.28,1.06,4.37-2.95,6.06-3.45,9.53-2.9,11.92-13.5,10.12-22.2Z"/>
      <g>
        <path class="cls-3" d="M39.39,115.26c.07,1.24-1.08,3.03-2.8,3.5-2.2.49-4.06-1.65-4.39-3.25-1.44-6.26-1.7-21.03-.21-28.31.5-2.26,1.63-4.3,4.13-4.19,2.12.14,3.72,2.3,3.36,4.92-.1.63-.19,1.13-.28,1.75.48-.39.96-.67,1.56-1.07,3.62-2.05,8.72-4.3,11.58-4.45,4.46-.23,7.27,1.81,7.56,6.94.61,11.31-5.62,18.68-5.62,18.68,3.99-1.44,8.05-2.9,11.57-4.46,1.94-.84,4.78-1.24,5.49.46.43.97-.15,4.11-3.28,6.14-5.67,3.15-10.65,5.39-16.18,6.67-3.68.81-10.54-3.15-7.04-6.47,7.58-7.18,6.92-19.99,6.92-19.99-2.81.77-6.33,2.44-9.48,4.09-1.33.69-2.47.25-3.38-.57-.22,7.71.1,16.39.51,19.6ZM101.33,136.18c-2.37-.25-3.94-4.14-4.37-7.61-1.16-8.13-3.14-22.98-2.99-32.18-5.81,3.03-7.01,3.82-13.88,5.54.34,4.21.92,8.28,1.74,11.96.51,2.71-.4,4.5-2.61,4.86-2.22.36-4.39-3.01-5.15-5.83-2.43-8.69-3.12-24.31-2.22-30.94.46-3.13,1.12-4.78,3.33-5.27,2.83-.39,5.05,1.73,4.73,4.97-.3,3.87-.46,7.98-.38,12.07,6.88-1.6,9.2-2.56,14.84-6.46.15-1.88.64-5.72.81-7.46.24-2.51,1.28-5.93,4.17-6.11,4.11-.25,3.75,7.16,3.4,10.04-1.04,11.23,1.11,34.39,1.88,46.77.15,2.85-.83,5.51-3.31,5.64Z"/>
        <path class="cls-3" d="M109.06,81.67c-.32-1.14-.3-3.34,3.77-4.46,10.97-3.03,26.42-4.79,37.53-5.11,3.75.06,5.15,2.06,5.2,3.09.04.77-.39,2.48-3.07,3.14-6.91,1.39-18.87,3.23-24.74,4.57.21,6.59.58,13.82,1.33,20.75,3.47-2.76,12.51-8.15,19.36-10.71,1.14-.45,6.13-1.49,6.97-.1.71,1.13.57,3.46-2.3,5.29-7.65,4.66-14.79,9.18-21.86,15.11-.99.82-2.13,1.27-3.17,1.33-3.74.19-6.62-3.15-7.37-7.51-1.17-7.7-1.77-14.14-1.66-22.29-.65.03-1.14.32-1.67.35-3.96.85-7.85-1.54-8.32-3.46ZM168.03,114.82c-8.08,4.04-36.37,14.72-43.67,16.27-4.47,1.01-7.68-.9-8.16-2.94-.49-1.78.75-3.14,3.66-4.07,11.6-3.44,36.88-12.55,48-17.52,2.52-1.16,4.58-1.66,5.22,1.03.82,3.19-1.9,5.66-5.05,7.24Z"/>
        <path class="cls-2" d="M212.12,68.18c-.27,1.51-1.69,2.85-3.2,2.82-8.18.07-29.43,2.94-34.86,4.84-3.52,1.22-5.13-1.12-5.56-2.72-.57-1.93.5-3.37,2.65-4.28,5.64-2.37,29.86-5.74,36.39-4.34,2.45.57,4.94,1.82,4.57,3.68ZM184.27,80.5c.12,4.07.32,5.83.95,10.16.36,2.75,0,4.68-2.12,5.28-2.46.65-3.65-1.48-4.13-3.61-1.09-4.96-1.05-7.93-.96-10.86.12-2.71.54-5.59,2.69-5.96,2.05-.36,3.5,1.27,3.56,4.99ZM187.95,130.28c-2.83,1.07-6.22.21-7.25-1.81-.4-1.13-.98-3.41,3.76-5.39,2.6-1.05,5.31-2,8.27-2.85,1.1-5.59,5.2-13.3,6.79-18.22-4.24.57-9.83,1.77-15.52,3.22-3.76,1-5.97.54-6.54-1.51-.72-2.85,3.26-3.98,5.12-5.68,5.73-5.25,13.76-17.53,15.46-22.58.8-2.46,2.61-3.02,4.14-2.52,1.64.5,2.56,2.86,1.68,5.91-1.06,4.09-7.94,14-10.88,17.26,3.52-.99,8.79-1.72,10.74-1.82,2.3-.11,5.79.51,5.91,2.81.12,2.18-1.35,2.95-2.09,4.14-2.02,3.34-5.39,11.58-6.62,16.95,4.45-.93,8.92-1.62,13.16-1.95,3.79-.31,6.03.72,6.47,2.43.56,2.05-1.53,3.76-4.62,4.28-9.04,1.39-19.29,4.1-27.99,7.32Z"/>
        <path class="cls-3" d="M253.21,63.44c3.17,1.8,2.46,4.8.99,7.1-.92,1.41-1.95,2.94-2.84,4.71,8.62,2.27,18.16,5.6,23.3,9.52,2.82,2.2,2.69,4.54,2.14,5.68-.79,1.27-3.16.91-5.17.14-6.29-2.51-15.85-6.08-23.74-8.51-2.33,5.05-7.03,15.28-8.14,20.14-.69,3.24-2.73,6.68-6.42,4.41-1.78-1.02-2.08-4.45-1.79-6.08,1.86-11.69,9.9-26.39,17.29-36.15,1.03-1.41,3.24-1.65,4.39-.96ZM283,110.02c-13.73,5.25-40.98,14.88-50.19,15.63-3.15.28-6.44-.59-6.79-2.75-.41-2.54,2-4.92,5.74-5.37,12.3-1.42,37.73-10.85,50.18-14.26,2.43-.63,3.9.44,4.59,1.89.81,1.67-1.82,4.16-3.54,4.85Z"/>
        <path class="cls-3" d="M307.35,86.83c-2.73.95-5.57,1.78-8.21,2.27-.04,5.89-.12,11.09.45,13.03.43,1.48.59,2.51,2.51,1.6,2.83-1.07,6.41-3.22,9.99-5.6,3.46-2.37,6.78-5.2,9.32-7.63,2.95-3.05,4.93-4.88,6.39-3.57.85.77.45,4.13-.82,6.39-2.64,4.76-7.95,9.42-13.19,12.92-5.25,3.5-10.19,6.07-12.14,6.29-3.67.65-7.34-1.12-8.8-4.74-.92-2.26-1.38-6.63-1.29-11.71-.1-1.96-.08-4.04-.08-6.12-.12,0-.24-.1-.36-.1-1.16-.17-3.88-1.29-3.99-3.49-.1-1.96,2.17-2.77,3.89-3.09.23-.01.46-.02.68-.15.06-1.04.13-2.08.3-3.13.18-3.13.5-6.03.72-8.35-.46.14-.91.28-1.36.3-.92.16-2.54.25-3.83-.15-1.41-.39-2.36-1.04-2.43-2.3.01-1.96,2.95-3.38,4.76-4.05,1.7-.56,4.78-1.29,8.1-2.04,3.2-.63,6.64-1.15,9.29-1.17,2.41-.12,5.92.62,6.46,2.32.18,1.03-.57,2.22-1.46,2.85-1,.85-2.25,1.27-3.17,1.32-2.62.36-5.62.86-8.69,1.49-.42,3.02-.68,6.96-.94,11.13,5.94-1.34,6.9-1.15,11.44-2.65,1.91-.8,5-1.42,6.7,0,.6.55.73,2.96-2.19,4.61-2.24,1.27-2.47,1.61-8.03,3.52ZM341.43,52.02c1.87.25,5.09,1.23,5.25,2.95,4.46,47.39,10.73,59.34,8.73,60.69-4.35,2.93-11.59-14.5-15.46-42.23,0,0-4.27,2.08-6.43,3.11-2.91,1.38-3.56,1.85-5.03,2.28-1.3.38-2.63.49-3.69.07-1.29-.4-2.15-1.27-2.2-2.19.04-1.5,1.47-3.08,4.05-4.59,2.34-1.39,3.54-1.65,4.91-2.28,2.59-1.2,5.3-2.47,7.79-3.52-.09-1.73-.57-9.65-.64-11.14-.11-2.19.76-3.28,2.72-3.15Z"/>
        <path class="cls-3" d="M398.47,53.07c-.26-2.57.25-4.7,2.05-5.78,1.93-.71,6.48,2.37,6.62,5.07.64,9.98-1.06,18.49,2.76,37.29,2.59,12.79,7.51,19.7,6.57,20.65-1.17,1.18-10.1-8.88-13.26-19.15-4.08-13.28-3.55-22.83-3.55-22.83-5.3,12.11-14.41,24.41-25.47,29.67-5.66,2.63-8.46-1.54-9.93-6.02-2.75-7.87-2.61-19.59-2.09-23.7-1.81.59-3.76,1.19-5.7,1.78-1.94.72-3.86-.66-4.66-1.85-.81-1.19-.45-3.93,1.6-4.9,8.65-4.26,19.48-4.7,27.8-3.53,1.88.4,3.35,2.54,3.78,3.88.29.97-.91,1.53-2.14,1.59-5.4.4-9.57.75-13.48,1.43.42.84.6,1.94.52,2.93-.57,5.58.02,14.54,1.65,20.01,7.92-1.76,19.94-17.43,27.33-29.4l-.39-7.15Z"/>
      </g>
      <path class="cls-1" d="M516.99,108.15c-2.62,3.56-6.91,4.84-9.58,2.87-2.66-1.97-2.7-6.45-.08-10,2.63-3.56,6.91-4.84,9.58-2.88,2.67,1.97,2.71,6.45.08,10Z"/>
      <path class="cls-1" d="M485.11,145.02c-2.84.89-5.68-.12-6.35-2.25-.66-2.13,1.1-4.57,3.94-5.46,2.83-.88,5.67.12,6.35,2.25.66,2.13-1.1,4.58-3.94,5.46Z"/>
    </g>
  </g>
</svg>